<?xml version="1.0" encoding="UTF-8" standalone="no"?>
<!-- Created with Inkscape (http://www.inkscape.org/) -->

<svg
   xmlns:dc="http://purl.org/dc/elements/1.1/"
   xmlns:cc="http://creativecommons.org/ns#"
   xmlns:rdf="http://www.w3.org/1999/02/22-rdf-syntax-ns#"
   xmlns:svg="http://www.w3.org/2000/svg"
   xmlns="http://www.w3.org/2000/svg"
   xmlns:inkscape="http://www.inkscape.org/namespaces/inkscape"
   version="1.1"
   width="275"
   height="276.25"
   id="svg2"
   xml:space="preserve"><metadata
     id="metadata8"><rdf:RDF><cc:Work
         rdf:about=""><dc:format>image/svg+xml</dc:format><dc:type
           rdf:resource="http://purl.org/dc/dcmitype/StillImage" /></cc:Work></rdf:RDF></metadata><defs
     id="defs6" /><g
     transform="matrix(1.25,0,0,-1.25,0,276.25)"
     id="g10"><g
       transform="scale(0.1,0.1)"
       id="g12"><path
         d="m 2029.53,1110.09 c 0,-511.918 -414.99,-926.91 -926.91,-926.91 -511.921,0 -926.913,414.992 -926.913,926.91 0,511.92 414.992,926.91 926.913,926.91 511.92,0 926.91,-414.99 926.91,-926.91"
         inkscape:connector-curvature="0"
         id="path14"
         style="fill:#100f0d;fill-opacity:1;fill-rule:nonzero;stroke:none" /><path
         d="m 1168.96,1285.77 c -20.84,-7.77 -42.85,-11.82 -64.83,-11.82 -22.95,0 -45.95,4.38 -67.64,12.9 -1.55,-7.74 -3.14,-14.99 -4.65,-23.01 -7.13,-37.54 -13.81,-78.09 -19.83,-120.78 28.77,-8.41 59.15,-13 90.61,-13 31.45,0 61.83,4.59 90.61,13 -6.03,42.69 -12.71,83.24 -19.83,120.78 -1.44,7.64 -2.96,14.54 -4.44,21.93"
         inkscape:connector-curvature="0"
         id="path16"
         style="fill:#ffffff;fill-opacity:1;fill-rule:nonzero;stroke:none" /><path
         d="m 1205.07,302.129 c 1.97,18.351 3.85,36.883 5.53,55.75 4.58,50.332 8.25,102.34 10.3,155.18 2.73,52.851 3.11,106.543 3.8,160.222 -0.67,53.688 -0.88,107.379 -3.62,160.231 -1.79,52.84 -5.79,104.847 -10.16,155.179 -4.1,46.469 -9.19,91.409 -14.94,134.359 -29.71,-8.4 -61,-12.99 -93.36,-12.99 -32.36,0 -63.65,4.59 -93.36,12.99 -5.76,-42.95 -10.846,-87.89 -14.947,-134.359 -4.368,-50.332 -8.368,-102.339 -10.153,-155.179 -2.742,-52.852 -2.961,-106.543 -3.625,-160.231 0.695,-53.679 1.07,-107.371 3.805,-160.222 2.047,-52.84 5.715,-104.848 10.301,-155.18 1.675,-18.867 3.55,-37.399 5.519,-55.75 -400.969,50.582 -712.18,393.492 -712.18,807.961 0,449.19 365.45,814.64 814.64,814.64 449.19,0 814.64,-365.45 814.64,-814.64 0,-414.469 -311.22,-757.379 -712.19,-807.961 z M 1102.62,1944.73 c -460.225,0 -834.64,-374.42 -834.64,-834.64 0,-426.281 321.297,-778.699 734.4,-828.399 32.89,-3.961 66.3,-6.23 100.24,-6.23 33.94,0 67.34,2.269 100.23,6.23 413.11,49.7 734.41,402.118 734.41,828.399 0,460.22 -374.42,834.64 -834.64,834.64"
         inkscape:connector-curvature="0"
         id="path18"
         style="fill:#ffffff;fill-opacity:1;fill-rule:nonzero;stroke:none" /><path
         d="m 1199.97,1755.7 c 0,0 -250.716,-38.62 -250.716,-270.17 0,-235.17 306.726,-233.36 306.726,-7.88 0,126.08 -127,207.06 -56.01,278.05"
         inkscape:connector-curvature="0"
         id="path20"
         style="fill:#ffffff;fill-opacity:1;fill-rule:nonzero;stroke:none" /><path
         d="m 460.465,1108.96 c 0,101.99 83.992,182.98 188.992,182.98 43.496,0 84.746,-14.99 116.992,-40.49 7.5,-5.25 9.004,-16.5 2.258,-24.75 -6.008,-6.75 -16.504,-8.99 -24.758,-3 -26.238,21 -59.246,33 -94.492,33 -85.496,0 -152.996,-66.75 -152.996,-147.74 0,-82.5 67.5,-148.499 152.996,-148.499 35.246,0 68.254,12 94.492,32.25 8.254,6 18.75,3.75 24.758,-3 6.746,-8.25 5.242,-19.5 -3.75,-26.25 -30.754,-24 -72.004,-39 -115.5,-39 -105,0 -188.992,80.999 -188.992,184.499"
         inkscape:connector-curvature="0"
         id="path22"
         style="fill:#ffffff;fill-opacity:1;fill-rule:nonzero;stroke:none" /><path
         d="m 1456.91,1411.45 c 0,9.74 8.25,17.99 18,17.99 10.5,0 18.75,-8.25 18.75,-17.99 l 0,-353.25 217.49,216.75 c 7.5,7.5 18,7.5 25.5,0 7.5,-6.76 7.5,-18 0,-25.5 L 1594.91,1107.71 1737.4,934.461 c 6.75,-8.25 6,-18.75 -1.5,-26.25 -3.75,-3 -8.25,-3.75 -12,-3.75 -5.25,0 -11.25,1.508 -14.25,6.75 l -140.99,170.249 -75,-75 0,-83.999 c 0,-9.75 -8.25,-18 -18.75,-18 -9.75,0 -18,8.25 -18,18 l 0,488.989"
         inkscape:connector-curvature="0"
         id="path24"
         style="fill:#ffffff;fill-opacity:1;fill-rule:nonzero;stroke:none" /></g></g></svg>
